amp_velcurve_1=0.28422
amp_velcurve_2=0.29889
amp_velcurve_3=0.31431
amp_velcurve_4=0.33053
amp_velcurve_5=0.34759
amp_velcurve_6=0.36553
amp_velcurve_7=0.38439
amp_velcurve_8=0.40423
amp_velcurve_9=0.42509
amp_velcurve_10=0.44703
amp_velcurve_11=0.4701
amp_velcurve_12=0.49436
amp_velcurve_13=0.51988
amp_velcurve_14=0.54671
amp_velcurve_15=0.57492
amp_velcurve_16=0.60459
amp_velcurve_17=0.63579
amp_velcurve_18=0.6686
amp_velcurve_19=0.70311
amp_velcurve_20=0.7394
amp_velcurve_21=0.77755
amp_velcurve_22=0.81768
amp_velcurve_23=0.85988
amp_velcurve_24=0.90426
amp_velcurve_25=0.95092
amp_velcurve_26=1
amp_velcurve_27=0.70955
amp_velcurve_28=0.7452
amp_velcurve_29=0.78264
amp_velcurve_30=0.82196
amp_velcurve_31=0.86325
amp_velcurve_32=0.90662
amp_velcurve_33=0.95217
amp_velcurve_34=1
amp_velcurve_35=0.87364
amp_velcurve_36=1
amp_velcurve_37=0.88824
amp_velcurve_38=0.90596
amp_velcurve_39=0.92403
amp_velcurve_40=0.94247
amp_velcurve_41=0.96127
amp_velcurve_42=0.98044
amp_velcurve_43=1
amp_velcurve_44=0.9043
amp_velcurve_45=0.95095
amp_velcurve_46=1
amp_velcurve_47=0.9388
amp_velcurve_48=0.95877
amp_velcurve_49=0.97917
amp_velcurve_50=1
amp_velcurve_51=0.90719
amp_velcurve_52=0.92504
amp_velcurve_53=0.94323
amp_velcurve_54=0.96179
amp_velcurve_55=0.98071
amp_velcurve_56=1
amp_velcurve_57=0.93507
amp_velcurve_58=0.94409
amp_velcurve_59=0.95318
amp_velcurve_60=0.96237
amp_velcurve_61=0.97164
amp_velcurve_62=0.981
amp_velcurve_63=0.99046
amp_velcurve_64=1
amp_velcurve_65=0.89409
amp_velcurve_66=0.9085
amp_velcurve_67=0.92315
amp_velcurve_68=0.93803
amp_velcurve_69=0.95315
amp_velcurve_70=0.96852
amp_velcurve_71=0.98413
amp_velcurve_72=1
amp_velcurve_73=0.85591
amp_velcurve_74=0.87514
amp_velcurve_75=0.89481
amp_velcurve_76=0.91493
amp_velcurve_77=0.93549
amp_velcurve_78=0.95652
amp_velcurve_79=0.97802
amp_velcurve_80=1
amp_velcurve_81=0.86375
amp_velcurve_82=0.88201
amp_velcurve_83=0.90066
amp_velcurve_84=0.91971
amp_velcurve_85=0.93915
amp_velcurve_86=0.95901
amp_velcurve_87=0.97929
amp_velcurve_88=1
amp_velcurve_89=0.92089
amp_velcurve_90=0.9318
amp_velcurve_91=0.94283
amp_velcurve_92=0.954
amp_velcurve_93=0.9653
amp_velcurve_94=0.97673
amp_velcurve_95=0.9883
amp_velcurve_96=1
amp_velcurve_97=0.93902
amp_velcurve_98=0.94749
amp_velcurve_99=0.95605
amp_velcurve_100=0.96468
amp_velcurve_101=0.97339
amp_velcurve_102=0.98218
amp_velcurve_103=0.99105
amp_velcurve_104=1
amp_velcurve_105=0.92295
amp_velcurve_106=0.93359
amp_velcurve_107=0.94434
amp_velcurve_108=0.95522
amp_velcurve_109=0.96622
amp_velcurve_110=0.97735
amp_velcurve_111=0.98861
amp_velcurve_112=1
amp_velcurve_113=0.94038
amp_velcurve_114=0.94867
amp_velcurve_115=0.95704
amp_velcurve_116=0.96548
amp_velcurve_117=0.974
amp_velcurve_118=0.98259
amp_velcurve_119=0.99126
amp_velcurve_120=1
amp_velcurve_121=0.97535
amp_velcurve_122=0.97942
amp_velcurve_123=0.9835
amp_velcurve_124=0.9876
amp_velcurve_125=0.99172
amp_velcurve_126=0.99585
amp_velcurve_127=1
<region> sample=C4v1.flac lovel=1 hivel=26
<region> sample=C4v2.flac lovel=27 hivel=34
<region> sample=C4v3.flac lovel=35 hivel=36
<region> sample=C4v4.flac lovel=37 hivel=43
<region> sample=C4v5.flac lovel=44 hivel=46
<region> sample=C4v6.flac lovel=47 hivel=50
<region> sample=C4v7.flac lovel=51 hivel=56
<region> sample=C4v8.flac lovel=57 hivel=64
<region> sample=C4v9.flac lovel=65 hivel=72
<region> sample=C4v10.flac lovel=73 hivel=80
<region> sample=C4v11.flac lovel=81 hivel=88
<region> sample=C4v12.flac lovel=89 hivel=96
<region> sample=C4v13.flac lovel=97 hivel=104
<region> sample=C4v14.flac lovel=105 hivel=112 volume=-1.53
<region> sample=C4v15.flac lovel=113 hivel=120 volume=-0.72
<region> sample=C4v16.flac lovel=121 hivel=127
